<svg width="50" height="36" xmlns="http://www.w3.org/2000/svg"><g fill="none" fill-rule="evenodd"><rect fill="#F2F2F2" y="4" width="50" height="12" rx="3"/><rect fill="#333" width="16" height="2" rx="1"/><g transform="translate(0 4)"><rect fill="#F2F2F2" y="20" width="50" height="12" rx="3"/><path d="M3 0h44a3 3 0 0 1 3 3v6a3 3 0 0 1-3 3H3a3 3 0 0 1-3-3V3a3 3 0 0 1 3-3zm0 1a2 2 0 0 0-2 2v6a2 2 0 0 0 2 2h44a2 2 0 0 0 2-2V3a2 2 0 0 0-2-2H3zm0 19h44a3 3 0 0 1 3 3v6a3 3 0 0 1-3 3H3a3 3 0 0 1-3-3v-6a3 3 0 0 1 3-3zm0 1a2 2 0 0 0-2 2v6a2 2 0 0 0 2 2h44a2 2 0 0 0 2-2v-6a2 2 0 0 0-2-2H3z" fill="#CCC" fill-rule="nonzero"/><rect fill="#333" y="16" width="16" height="2" rx="1"/></g></g></svg>