<svg width="56" height="56" xmlns="http://www.w3.org/2000/svg"><g fill="none" fill-rule="evenodd"><path d="M0 0h56v56H0z"/><path d="M28 10.5c4.832 0 9.207 1.959 12.374 5.126A17.445 17.445 0 0 1 45.5 28c0 4.832-1.959 9.207-5.126 12.374A17.445 17.445 0 0 1 28 45.5a17.445 17.445 0 0 1-12.374-5.126A17.445 17.445 0 0 1 10.5 28c0-4.832 1.959-9.207 5.126-12.374A17.445 17.445 0 0 1 28 10.5z" stroke="#CCC" fill="#F2F2F2"/><path d="M20.5 26a2.5 2.5 0 1 0 0-5 2.5 2.5 0 0 0 0 5zm15 0a2.5 2.5 0 1 0 0-5 2.5 2.5 0 0 0 0 5zM28 40a10.001 10.001 0 0 0 10-10H18a9.997 9.997 0 0 0 10 10z" fill="#000" fill-rule="nonzero"/></g></svg>